<?xml version="1.0" encoding="utf-8"?>
<svg version="1.1" xmlns:xlink="http://www.w3.org/1999/xlink" width="140px" height="84px" xmlns="http://www.w3.org/2000/svg">
  <defs>
    <mask fill="white" id="clip4">
      <path d="M 140 0  L 0 0  L 0 69.46555464545733  C 0 69.46555464545733  16.633663366336666 85.62131407098195  39.15841584158425 83.86677894657663  C 61.68316831683167 82.11224382217127  73.81188118811879 62.110543403950075  100.14851485148515 60.706915304425735  C 126.48514851485152 59.303287204901444  140 60.706915304425735  140 60.706915304425735  L 140 0  Z " fill-rule="evenodd" />
    </mask>
  </defs>
  <g transform="matrix(1 0 0 1 -406 -91 )">
    <path d="M 140 0  L 0 0  L 0 69.46555464545733  C 0 69.46555464545733  16.633663366336666 85.62131407098195  39.15841584158425 83.86677894657663  C 61.68316831683167 82.11224382217127  73.81188118811879 62.110543403950075  100.14851485148515 60.706915304425735  C 126.48514851485152 59.303287204901444  140 60.706915304425735  140 60.706915304425735  L 140 0  Z " fill-rule="nonzero" fill="#d9001b" stroke="none" transform="matrix(1 0 0 1 406 91 )" />
    <path d="M 140 0  L 0 0  L 0 69.46555464545733  C 0 69.46555464545733  16.633663366336666 85.62131407098195  39.15841584158425 83.86677894657663  C 61.68316831683167 82.11224382217127  73.81188118811879 62.110543403950075  100.14851485148515 60.706915304425735  C 126.48514851485152 59.303287204901444  140 60.706915304425735  140 60.706915304425735  L 140 0  Z " stroke-width="2" stroke="#797979" fill="none" transform="matrix(1 0 0 1 406 91 )" mask="url(#clip4)" />
  </g>
</svg>