<?xml version="1.0" encoding="utf-8"?>
<svg version="1.1" xmlns:xlink="http://www.w3.org/1999/xlink" width="231px" height="151px" xmlns="http://www.w3.org/2000/svg">
  <defs>
    <mask fill="white" id="clip13">
      <path d="M 231 0  L 0 0  L 0 124.87260418409592  C 0 124.87260418409592  27.445544554455502 153.91450505616996  64.61138613861401 150.76051929682228  C 101.77722772277225 147.60653353747455  121.789603960396 111.65109588091025  165.2450495049505 109.12790727343197  C 208.700495049505 106.60471866595378  231 109.12790727343197  231 109.12790727343197  L 231 0  Z " fill-rule="evenodd" />
    </mask>
  </defs>
  <g transform="matrix(1 0 0 1 -944 -1817 )">
    <path d="M 231 0  L 0 0  L 0 124.87260418409592  C 0 124.87260418409592  27.445544554455502 153.91450505616996  64.61138613861401 150.76051929682228  C 101.77722772277225 147.60653353747455  121.789603960396 111.65109588091025  165.2450495049505 109.12790727343197  C 208.700495049505 106.60471866595378  231 109.12790727343197  231 109.12790727343197  L 231 0  Z " fill-rule="nonzero" fill="#d9001b" stroke="none" transform="matrix(1 0 0 1 944 1817 )" />
    <path d="M 231 0  L 0 0  L 0 124.87260418409592  C 0 124.87260418409592  27.445544554455502 153.91450505616996  64.61138613861401 150.76051929682228  C 101.77722772277225 147.60653353747455  121.789603960396 111.65109588091025  165.2450495049505 109.12790727343197  C 208.700495049505 106.60471866595378  231 109.12790727343197  231 109.12790727343197  L 231 0  Z " stroke-width="2" stroke="#797979" fill="none" transform="matrix(1 0 0 1 944 1817 )" mask="url(#clip13)" />
  </g>
</svg>