<?xml version="1.0" encoding="utf-8"?>
<svg version="1.1" xmlns:xlink="http://www.w3.org/1999/xlink" width="1114px" height="289px" xmlns="http://www.w3.org/2000/svg">
  <g transform="matrix(1 0 0 1 -121 -3946 )">
    <path d="M 121 3946  L 1235 3946  L 1235 4235  L 121 4235  L 121 3946  " fill-rule="nonzero" fill="#cccccc" stroke="none" />
    <path d="M 141 3966  L 1215 3966  L 1215 4215  L 141 4215  L 141 3966  " fill-rule="nonzero" fill="#ffffff" stroke="none" />
    <path d="M 721.9549999999999 4032.7  C 709.817 4032.7  700.28 4023.1629999999996  700.28 4011.0249999999996  C 700.28 3998.8869999999997  709.817 3989.35  721.9549999999999 3989.35  C 734.093 3989.35  743.63 3998.8869999999997  743.63 4011.0249999999996  C 743.63 4023.1629999999996  734.093 4032.7  721.9549999999999 4032.7  " fill-rule="nonzero" fill="#cccccc" stroke="none" />
    <path d="M 148 4208  L 148 4078.75  L 413 4020  L 784 4171.421005385996  L 996 4055.25  L 1208 4171.421005385996  L 1208 4208  L 148 4208  " fill-rule="nonzero" fill="#169bd5" stroke="none" />
  </g>
</svg>