<?xml version="1.0" encoding="utf-8"?>
<svg version="1.1" xmlns:xlink="http://www.w3.org/1999/xlink" width="350px" height="229px" xmlns="http://www.w3.org/2000/svg">
  <g transform="matrix(1 0 0 1 -112 -1151 )">
    <path d="M 112 1151  L 462 1151  L 462 1380  L 112 1380  L 112 1151  " fill-rule="nonzero" fill="#cccccc" stroke="none" />
    <path d="M 128 1167  L 446 1167  L 446 1364  L 128 1364  L 128 1167  " fill-rule="nonzero" fill="#ffffff" stroke="none" />
    <path d="M 311.175 1219.6999999999998  C 301.557 1219.6999999999998  294 1212.1429999999998  294 1202.5249999999999  C 294 1192.907  301.557 1185.35  311.175 1185.35  C 320.793 1185.35  328.35 1192.907  328.35 1202.5249999999999  C 328.35 1212.1429999999998  320.793 1219.6999999999998  311.175 1219.6999999999998  " fill-rule="nonzero" fill="#cccccc" stroke="none" />
    <path d="M 134 1359  L 134 1256.7  L 210.75 1210.2  L 318.2 1285.9817142857144  L 379.6 1238.1  L 441 1285.9817142857144  L 441 1359  L 134 1359  " fill-rule="nonzero" fill="#169bd5" stroke="none" />
  </g>
</svg>