<?xml version="1.0" encoding="utf-8"?>
<svg version="1.1" xmlns:xlink="http://www.w3.org/1999/xlink" width="993px" height="438px" xmlns="http://www.w3.org/2000/svg">
  <g transform="matrix(1 0 0 1 -196 -6680 )">
    <path d="M 196 6680  L 1189 6680  L 1189 7118  L 196 7118  L 196 6680  " fill-rule="nonzero" fill="#cccccc" stroke="none" />
    <path d="M 227 6711  L 1158 6711  L 1158 7087  L 227 7087  L 227 6711  " fill-rule="nonzero" fill="#ffffff" stroke="none" />
    <path d="M 745.21 6811.4  C 726.8140000000001 6811.4  712.36 6796.946  712.36 6778.549999999999  C 712.36 6760.1539999999995  726.8140000000001 6745.7  745.21 6745.7  C 763.606 6745.7  778.0600000000001 6760.1539999999995  778.0600000000001 6778.549999999999  C 778.0600000000001 6796.946  763.606 6811.4  745.21 6811.4  " fill-rule="nonzero" fill="#cccccc" stroke="none" />
    <path d="M 238 7076  L 238 6881.3  L 465.25 6792.8  L 783.4 6982.312990936556  L 965.2 6845.9  L 1147 6982.312990936556  L 1147 7076  L 238 7076  " fill-rule="nonzero" fill="#169bd5" stroke="none" />
  </g>
</svg>