<?xml version="1.0" encoding="utf-8"?>
<svg version="1.1" xmlns:xlink="http://www.w3.org/1999/xlink" width="518px" height="320px" xmlns="http://www.w3.org/2000/svg">
  <g transform="matrix(1 0 0 1 -226 -7380 )">
    <path d="M 226 7380  L 744 7380  L 744 7700  L 226 7700  L 226 7380  " fill-rule="nonzero" fill="#cccccc" stroke="none" />
    <path d="M 248 7402  L 722 7402  L 722 7678  L 248 7678  L 248 7402  " fill-rule="nonzero" fill="#ffffff" stroke="none" />
    <path d="M 519.36 7476  C 505.92 7476  495.36 7465.44  495.36 7452  C 495.36 7438.56  505.92 7428  519.36 7428  C 532.8000000000001 7428  543.36 7438.56  543.36 7452  C 543.36 7465.44  532.8000000000001 7476  519.36 7476  " fill-rule="nonzero" fill="#cccccc" stroke="none" />
    <path d="M 256 7670  L 256 7527  L 370.5 7462  L 530.8 7573.629343629344  L 622.4000000000001 7501  L 714 7573.629343629344  L 714 7670  L 256 7670  " fill-rule="nonzero" fill="#169bd5" stroke="none" />
  </g>
</svg>